HIERARCHY
ROOT Hips
{
	OFFSET 0.00000 0.00000 0.00000
	CHANNELS 6 Xposition Yposition Zposition Zrotation Yrotation Xrotation 
	JOINT LHipJoint
	{
		OFFSET 0 0 0
		CHANNELS 3 Zrotation Yrotation Xrotation
		JOINT LeftUpLeg
		{
			OFFSET 1.58895 -1.83665 0.71753
			CHANNELS 3 Zrotation Yrotation Xrotation
			JOINT LeftLeg
			{
				OFFSET 2.50528 -6.88321 0.00000
				CHANNELS 3 Zrotation Yrotation Xrotation
				JOINT LeftFoot
				{
					OFFSET 2.63244 -7.23257 0.00000
					CHANNELS 3 Zrotation Yrotation Xrotation
					JOINT LeftToeBase
					{
						OFFSET 0.23691 -0.65090 1.72750
						CHANNELS 3 Zrotation Yrotation Xrotation
						End Site
						{
							OFFSET 0.00000 -0.00000 0.92561
						}
					}
				}
			}
		}
	}
	JOINT RHipJoint
	{
		OFFSET 0 0 0
		CHANNELS 3 Zrotation Yrotation Xrotation
		JOINT RightUpLeg
		{
			OFFSET -1.51435 -1.83665 0.71753
			CHANNELS 3 Zrotation Yrotation Xrotation
			JOINT RightLeg
			{
				OFFSET -2.54551 -6.99375 0.00000
				CHANNELS 3 Zrotation Yrotation Xrotation
				JOINT RightFoot
				{
					OFFSET -2.66027 -7.30903 0.00000
					CHANNELS 3 Zrotation Yrotation Xrotation
					JOINT RightToeBase
					{
						OFFSET -0.22981 -0.63138 2.03959
						CHANNELS 3 Zrotation Yrotation Xrotation
						End Site
						{
							OFFSET -0.00000 -0.00000 1.07060
						}
					}
				}
			}
		}
	}
	JOINT LowerBack
	{
		OFFSET 0 0 0
		CHANNELS 3 Zrotation Yrotation Xrotation
		JOINT Spine
		{
			OFFSET -0.02651 1.86275 -0.11152
			CHANNELS 3 Zrotation Yrotation Xrotation
			JOINT Spine1
			{
				OFFSET 0.01019 1.86224 0.04087
				CHANNELS 3 Zrotation Yrotation Xrotation
				JOINT Neck
				{
					OFFSET 0 0 0
					CHANNELS 3 Zrotation Yrotation Xrotation
					JOINT Neck1
					{
						OFFSET -0.01926 1.80512 0.08867
						CHANNELS 3 Zrotation Yrotation Xrotation
						JOINT Head
						{
							OFFSET 0.05516 1.76451 -0.38475
							CHANNELS 3 Zrotation Yrotation Xrotation
							End Site
							{
								OFFSET 0.01592 1.82587 -0.14001
							}
						}
					}
				}
				JOINT LeftShoulder
				{
					OFFSET 0 0 0
					CHANNELS 3 Zrotation Yrotation Xrotation
					JOINT LeftArm
					{
						OFFSET 3.47116 1.51376 0.14491
						CHANNELS 3 Zrotation Yrotation Xrotation
						JOINT LeftForeArm
						{
							OFFSET 4.78095 -0.00000 0.00000
							CHANNELS 3 Zrotation Yrotation Xrotation
							JOINT LeftHand
							{
								OFFSET 3.58615 -0.00000 -0.00000
								CHANNELS 3 Zrotation Yrotation Xrotation
								JOINT LeftFingerBase
								{
									OFFSET 0 0 0
									CHANNELS 3 Zrotation Yrotation Xrotation
									JOINT LeftHandIndex1
									{
										OFFSET 0.65981 -0.00000 0.00000
										CHANNELS 3 Zrotation Yrotation Xrotation
										End Site
										{
											OFFSET 0.53196 -0.00000 0.00000
										}
									}
								}
								JOINT LThumb
								{
									OFFSET 0 0 0
									CHANNELS 3 Zrotation Yrotation Xrotation
									End Site
									{
										OFFSET 0.54008 -0.00000 0.54008
									}
								}
							}
						}
					}
				}
				JOINT RightShoulder
				{
					OFFSET 0 0 0
					CHANNELS 3 Zrotation Yrotation Xrotation
					JOINT RightArm
					{
						OFFSET -3.31725 1.61216 0.35156
						CHANNELS 3 Zrotation Yrotation Xrotation
						JOINT RightForeArm
						{
							OFFSET -4.48913 -0.00000 0.00000
							CHANNELS 3 Zrotation Yrotation Xrotation
							JOINT RightHand
							{
								OFFSET -3.70510 -0.00000 0.00000
								CHANNELS 3 Zrotation Yrotation Xrotation
								JOINT RightFingerBase
								{
									OFFSET 0 0 0
									CHANNELS 3 Zrotation Yrotation Xrotation
									JOINT RightHandIndex1
									{
										OFFSET -0.44914 -0.00000 0.00000
										CHANNELS 3 Zrotation Yrotation Xrotation
										End Site
										{
											OFFSET -0.36211 -0.00000 0.00000
										}
									}
								}
								JOINT RThumb
								{
									OFFSET 0 0 0
									CHANNELS 3 Zrotation Yrotation Xrotation
									End Site
									{
										OFFSET -0.36763 -0.00000 0.36763
									}
								}
							}
						}
					}
				}
			}
		}
	}
}
MOTION
Frames: 8
Frame Time: .0083333
-0.6060 18.5364 6.7220 -5.7138 2.5905 -4.5783 0.0000 0.0000 0.0000 -9.2388 -3.0401 2.8194 1.7115 8.2374 23.4375 1.7922 -2.3236 -24.6922 8.3747 -16.3880 -53.9014 0.0000 0.0000 0.0000 0.0000 0.0000 0.0000 0.0000 0.0000 0.0000 -0.0000 -0.0000 0.0000 -0.0000 -0.0000 0.0000 4.8210 2.5685 5.9418 0.9003 3.9047 -2.9494 -2.1861 1.7468 -6.1603 12.7221 6.7405 -13.3231 -4.3838 8.0075 31.5144 -2.6198 4.5320 13.6280 -0.0000 -0.0000 0.0000 -95.4292 20.9331 22.7147 24.5119 -35.7009 -8.0033 -0.0000 0.0000 -16.5432 26.7839 -17.9007 -8.8194 -7.1250 0.0000 -0.0000 -0.8136 10.0900 0.6585 -0.0000 -0.0000 0.0000 102.9690 -28.7665 0.7762 -21.8402 32.7959 -6.4991 0.0000 -0.0000 -0.1732 -50.1321 -42.8638 39.1630 7.1250 -0.0000 -0.0000 -49.1297 -83.0777 43.6711
-0.5585 18.5472 6.7168 -5.9930 2.1295 -4.4965 0.0000 0.0000 0.0000 -9.1994 -3.2419 3.0037 1.6932 8.1955 23.3096 1.8232 -1.7265 -25.0592 8.3334 -16.3591 -53.7550 0.0000 0.0000 0.0000 0.0000 0.0000 0.0000 0.0000 0.0000 0.0000 -0.0000 -0.0000 0.0000 -0.0000 -0.0000 0.0000 4.5284 2.7096 6.1123 0.7122 4.0681 -2.9771 -2.2471 1.8313 -6.2809 13.1467 7.2321 -12.8232 -3.7656 8.5080 31.8085 -2.3678 4.8944 13.7068 -0.0000 -0.0000 0.0000 -95.2452 20.9129 22.6529 24.6155 -35.8084 -8.0638 -0.0000 0.0000 -16.9816 26.9475 -17.9550 -8.9067 -7.1250 0.0000 -0.0000 -0.7125 10.0036 0.5780 -0.0000 -0.0000 0.0000 103.4567 -28.8793 0.1017 -22.1949 33.1966 -6.6923 0.0000 0.0000 0.9947 -49.7599 -42.7864 38.7528 7.1250 -0.0000 -0.0000 -46.7854 -82.9693 41.4311
-0.5137 18.5542 6.7101 -6.3268 1.9031 -4.6612 0.0000 0.0000 0.0000 -9.1265 -3.5880 3.4417 1.6777 8.1598 23.2006 1.8557 -1.3520 -25.3871 8.2516 -16.3012 -53.4638 0.0000 0.0000 0.0000 0.0000 0.0000 0.0000 0.0000 0.0000 0.0000 -0.0000 -0.0000 0.0000 -0.0000 -0.0000 0.0000 4.4015 2.7572 6.4686 0.5764 4.1294 -2.9046 -2.3434 1.8608 -6.4024 13.7010 7.7861 -12.2287 -3.1816 9.0954 32.0383 -2.1372 5.3054 13.7580 0.0000 -0.0000 0.0000 -95.1482 20.7762 22.4937 24.6454 -35.8394 -8.0814 -0.0000 0.0000 -17.0421 26.9499 -17.9992 -8.9285 -7.1250 0.0000 -0.0000 -0.7156 9.9549 0.5811 0.0000 -0.0000 0.0000 103.5423 -28.8701 0.2823 -22.2711 33.2821 -6.7340 0.0000 0.0000 1.2866 -49.7600 -42.6580 38.6850 7.1250 -0.0000 -0.0000 -46.3975 -82.8481 40.9802
-0.4724 18.5622 6.7029 -6.6770 1.7646 -4.8793 0.0000 0.0000 0.0000 -9.0585 -4.0398 3.9443 1.6663 8.1334 23.1201 1.8920 -1.1538 -25.6957 8.1351 -16.2177 -53.0478 0.0000 0.0000 0.0000 0.0000 0.0000 0.0000 0.0000 0.0000 0.0000 -0.0000 -0.0000 0.0000 -0.0000 -0.0000 0.0000 4.4059 2.7573 6.9042 0.4380 4.1428 -2.8331 -2.5157 1.8596 -6.5651 14.3828 8.3790 -11.6185 -2.5077 9.6899 32.3233 -1.8882 5.7466 13.8385 -0.0000 -0.0000 0.0000 -95.0015 20.6207 22.3564 24.6421 -35.8359 -8.0794 -0.0000 0.0000 -16.8585 26.8435 -18.1105 -8.9404 -7.1250 0.0000 -0.0000 -0.7966 9.8508 0.6486 -0.0000 -0.0000 0.0000 103.7175 -28.8967 0.3364 -22.4061 33.4329 -6.8082 0.0000 0.0000 1.5262 -49.8609 -42.5607 38.7333 7.1250 -0.0000 -0.0000 -46.6578 -82.7675 41.1537
-0.4365 18.5736 6.6960 -7.0356 1.6641 -5.0154 0.0000 0.0000 0.0000 -8.9498 -4.4648 4.3143 1.6582 8.1145 23.0623 1.9223 -0.8536 -25.9908 8.0798 -16.1777 -52.8498 0.0000 0.0000 0.0000 0.0000 0.0000 0.0000 0.0000 0.0000 0.0000 -0.0000 -0.0000 0.0000 -0.0000 -0.0000 0.0000 4.3141 2.7115 7.0938 0.4326 4.0774 -2.6904 -2.4694 1.8338 -6.5323 14.9936 9.0364 -11.1052 -1.7396 10.3554 32.6052 -1.5710 6.2184 13.9372 -0.0000 -0.0000 0.0000 -95.0298 20.3707 22.1959 24.6480 -35.8421 -8.0829 -0.0000 0.0000 -16.6750 26.9375 -18.3623 -9.0948 -7.1250 0.0000 -0.0000 -0.7622 9.5598 0.6251 -0.0000 -0.0000 0.0000 103.5706 -28.8005 0.7072 -22.4801 33.5154 -6.8490 0.0000 0.0000 1.5841 -49.8971 -42.4066 38.6870 7.1250 -0.0000 -0.0000 -46.3999 -82.6261 40.8060
-0.4053 18.5863 6.6914 -7.3863 1.6508 -5.1086 0.0000 0.0000 0.0000 -8.8140 -4.8712 4.6028 1.6517 8.0993 23.0162 1.9528 -0.4930 -26.3085 8.0725 -16.1723 -52.8234 0.0000 0.0000 0.0000 0.0000 0.0000 0.0000 0.0000 0.0000 0.0000 -0.0000 -0.0000 0.0000 -0.0000 -0.0000 0.0000 4.0028 2.6096 6.8045 0.6720 3.8974 -2.2993 -1.9967 1.7829 -6.0005 15.4819 9.7964 -10.6030 -1.1401 11.2508 32.6194 -1.2641 6.7436 13.9408 0.0000 -0.0000 0.0000 -95.4651 19.7968 21.9324 24.6413 -35.8351 -8.0790 -0.0000 0.0000 -16.4603 27.2227 -18.5392 -9.2893 -7.1250 0.0000 -0.0000 -0.5964 9.3178 0.4920 0.0000 -0.0000 0.0000 102.9006 -28.3283 1.4143 -22.4746 33.5092 -6.8460 0.0000 0.0000 1.5099 -49.8376 -42.2119 38.5238 7.1250 -0.0000 -0.0000 -45.5378 -82.4341 39.8711
-0.3792 18.5967 6.6888 -7.7103 1.6421 -5.1863 0.0000 0.0000 0.0000 -8.6535 -5.1652 4.8286 1.6463 8.0868 22.9780 1.9764 -0.2933 -26.5312 8.0339 -16.1441 -52.6848 0.0000 0.0000 0.0000 0.0000 0.0000 0.0000 0.0000 0.0000 0.0000 -0.0000 -0.0000 0.0000 -0.0000 -0.0000 0.0000 4.1721 2.5992 7.0713 0.6563 3.9131 -2.3198 -2.1246 1.7789 -6.1622 16.0910 10.3995 -9.8759 -0.3501 11.8820 32.7450 -0.9573 7.2015 13.9178 0.0000 0.0000 0.0000 -95.3264 19.9117 22.2881 24.7078 -35.9038 -8.1179 -0.0000 0.0000 -16.4241 27.5216 -18.4673 -9.3721 -7.1250 0.0000 -0.0000 -0.3947 9.3450 0.3254 0.0000 0.0000 0.0000 102.9877 -28.3386 1.2914 -22.5487 33.5916 -6.8870 0.0000 0.0000 1.3911 -49.8429 -42.0849 38.4607 7.1250 -0.0000 -0.0000 -45.2218 -82.3136 39.4905
-0.3591 18.6043 6.6874 -7.9568 1.6117 -5.2678 0.0000 0.0000 0.0000 -8.5018 -5.2603 4.9752 1.6422 8.0771 22.9486 1.9816 -0.2094 -26.5928 8.0142 -16.1297 -52.6138 0.0000 0.0000 0.0000 0.0000 0.0000 0.0000 0.0000 0.0000 0.0000 -0.0000 -0.0000 0.0000 -0.0000 -0.0000 0.0000 4.3880 2.6221 7.4542 0.6275 3.9878 -2.4267 -2.3089 1.7957 -6.4745 16.8024 10.9133 -9.1600 0.2556 12.4328 32.9261 -0.7508 7.6146 13.9371 -0.0000 0.0000 0.0000 -95.0701 20.1894 22.8927 24.7776 -35.9758 -8.1589 -0.0000 0.0000 -16.5189 27.7036 -18.3980 -9.4099 -7.1250 0.0000 -0.0000 -0.2691 9.3895 0.2216 -0.0000 0.0000 0.0000 103.1957 -28.4789 0.9584 -22.6499 33.7038 -6.9431 0.0000 0.0000 1.1511 -49.8764 -41.9955 38.4455 7.1250 -0.0000 -0.0000 -45.1560 -82.2325 39.3675
